<?xml version="1.0" standalone="no"?>
<!DOCTYPE svg PUBLIC "-//W3C//DTD SVG 20010904//EN"
 "http://www.w3.org/TR/2001/REC-SVG-20010904/DTD/svg10.dtd">
<svg version="1.0" xmlns="http://www.w3.org/2000/svg"
 width="386.000000pt" height="386.000000pt" viewBox="0 0 386.000000 386.000000"
 preserveAspectRatio="xMidYMid meet">
<metadata>
Created by potrace 1.11, written by Peter Selinger 2001-2013
</metadata>
<g transform="translate(0.000000,386.000000) scale(0.100000,-0.100000)"
fill="#000000" stroke="none">
<path d="M1910 3569 c-8 -5 -59 -36 -113 -69 -54 -33 -100 -60 -102 -60 -2 0
-68 -39 -147 -87 -79 -47 -157 -94 -174 -103 -17 -10 -64 -38 -105 -63 -41
-24 -220 -131 -399 -237 -179 -105 -336 -200 -349 -209 l-24 -17 1 -779 c0
-429 1 -791 1 -805 1 -21 16 -34 89 -77 98 -58 608 -355 662 -386 19 -11 49
-28 65 -38 17 -10 41 -24 55 -32 14 -7 97 -56 185 -107 320 -186 362 -210 377
-210 9 0 27 9 41 20 14 11 28 20 32 20 3 0 97 53 208 119 320 187 1068 623
1108 644 l36 19 0 809 c0 571 -3 813 -11 823 -6 7 -96 63 -201 123 -161 94
-542 316 -1015 593 -198 116 -204 119 -220 109z"/>
</g>
</svg>
